<svg xmlns="http://www.w3.org/2000/svg" viewBox="0 0 800 400" width="800" height="400">
  <rect width="800" height="400" fill="#1a1a2e"/>
  <g stroke="#7f8c8d" stroke-width="2" stroke-linecap="round">
    <line x1="360" y1="276" x2="475" y2="159"/>
    <line x1="347" y1="176" x2="506" y2="112"/>
    <line x1="129" y1="182" x2="319" y2="271"/>
    <line x1="478" y1="216" x2="621" y2="262"/>
    <line x1="743" y1="278" x2="760" y2="207"/>
    <line x1="633" y1="360" x2="719" y2="291"/>
    <line x1="216" y1="123" x2="402" y2="40"/>
    <line x1="207" y1="141" x2="306" y2="88"/>
    <line x1="627" y1="200" x2="719" y2="130"/>
    <line x1="555" y1="40" x2="597" y2="132"/>
    <line x1="518" y1="66" x2="671" y2="52"/>
    <line x1="716" y1="47" x2="760" y2="40"/>
    <line x1="410" y1="130" x2="636" y2="134"/>
    <line x1="168" y1="311" x2="186" y2="132"/>
    <line x1="296" y1="40" x2="364" y2="126"/>
    <line x1="395" y1="40" x2="430" y2="133"/>
    <line x1="92" y1="150" x2="187" y2="269"/>
    <line x1="42" y1="40" x2="146" y2="146"/>
    <line x1="121" y1="70" x2="267" y2="69"/>
    <line x1="498" y1="225" x2="666" y2="220"/>
    <line x1="438" y1="360" x2="451" y2="349"/>
    <line x1="694" y1="349" x2="760" y2="353"/>
    <line x1="123" y1="345" x2="223" y2="120"/>
    <line x1="100" y1="57" x2="186" y2="40"/>
    <line x1="701" y1="358" x2="755" y2="360"/>
  </g>
  <g fill="#95a5a6">
    <circle cx="360" cy="276" r="3"/>
    <circle cx="475" cy="159" r="3"/>
    <circle cx="347" cy="176" r="3"/>
    <circle cx="506" cy="112" r="3"/>
    <circle cx="129" cy="182" r="3"/>
    <circle cx="319" cy="271" r="3"/>
    <circle cx="478" cy="216" r="3"/>
    <circle cx="621" cy="262" r="3"/>
    <circle cx="743" cy="278" r="3"/>
    <circle cx="760" cy="207" r="3"/>
    <circle cx="633" cy="360" r="3"/>
    <circle cx="719" cy="291" r="3"/>
    <circle cx="216" cy="123" r="3"/>
    <circle cx="402" cy="40" r="3"/>
    <circle cx="207" cy="141" r="3"/>
    <circle cx="306" cy="88" r="3"/>
    <circle cx="627" cy="200" r="3"/>
    <circle cx="719" cy="130" r="3"/>
    <circle cx="555" cy="40" r="3"/>
    <circle cx="597" cy="132" r="3"/>
    <circle cx="518" cy="66" r="3"/>
    <circle cx="671" cy="52" r="3"/>
    <circle cx="716" cy="47" r="3"/>
    <circle cx="760" cy="40" r="3"/>
    <circle cx="410" cy="130" r="3"/>
    <circle cx="636" cy="134" r="3"/>
    <circle cx="168" cy="311" r="3"/>
    <circle cx="186" cy="132" r="3"/>
    <circle cx="296" cy="40" r="3"/>
    <circle cx="364" cy="126" r="3"/>
    <circle cx="395" cy="40" r="3"/>
    <circle cx="430" cy="133" r="3"/>
    <circle cx="92" cy="150" r="3"/>
    <circle cx="187" cy="269" r="3"/>
    <circle cx="42" cy="40" r="3"/>
    <circle cx="146" cy="146" r="3"/>
    <circle cx="121" cy="70" r="3"/>
    <circle cx="267" cy="69" r="3"/>
    <circle cx="498" cy="225" r="3"/>
    <circle cx="666" cy="220" r="3"/>
    <circle cx="438" cy="360" r="3"/>
    <circle cx="451" cy="349" r="3"/>
    <circle cx="694" cy="349" r="3"/>
    <circle cx="760" cy="353" r="3"/>
    <circle cx="123" cy="345" r="3"/>
    <circle cx="223" cy="120" r="3"/>
    <circle cx="100" cy="57" r="3"/>
    <circle cx="186" cy="40" r="3"/>
    <circle cx="701" cy="358" r="3"/>
    <circle cx="755" cy="360" r="3"/>
  </g>
  <g fill="#E91E63" stroke="#1a1a2e" stroke-width="2">
    <circle cx="167.6" cy="244.7" r="6"/>
    <circle cx="173.9" cy="252.6" r="6"/>
    <circle cx="176.7" cy="224.1" r="6"/>
    <circle cx="178.6" cy="205.2" r="6"/>
    <circle cx="184.0" cy="207.8" r="6"/>
    <circle cx="215.7" cy="136.3" r="6"/>
    <circle cx="323.6" cy="75.0" r="6"/>
    <circle cx="396.0" cy="42.7" r="6"/>
    <circle cx="429.0" cy="130.3" r="6"/>
    <circle cx="459.1" cy="130.9" r="6"/>
    <circle cx="505.3" cy="224.8" r="6"/>
    <circle cx="564.9" cy="61.7" r="6"/>
  </g>
  <text x="790" y="30" text-anchor="end" font-family="sans-serif" font-size="14" fill="#95a5a6">12 intersections found</text>
</svg>
